<?xml version="1.0" ?><!DOCTYPE svg  PUBLIC '-//W3C//DTD SVG 1.1//EN'  'http://www.w3.org/Graphics/SVG/1.1/DTD/svg11.dtd'><svg enable-background="new 0 0 512 512" height="512px" id="Layer_1" version="1.1" viewBox="0 0 512 512" width="512px" xml:space="preserve" xmlns="http://www.w3.org/2000/svg" xmlns:xlink="http://www.w3.org/1999/xlink"><g><path d="    M437.729,457.51c0,10.232-8.258,18.49-18.49,18.49H92.761c-10.192,0-18.49-8.258-18.49-18.49V224.344    c0-10.232,8.298-18.531,18.49-18.531h326.479c10.232,0,18.49,8.299,18.49,18.531V457.51z" fill="none" stroke="#000000" stroke-linecap="round" stroke-linejoin="round" stroke-miterlimit="10" stroke-width="8"/><path d="    M139.159,91.127C166.923,57.459,208.957,36,256,36c83.633,0,151.352,67.759,151.352,151.367" fill="none" stroke="#000000" stroke-linecap="round" stroke-linejoin="round" stroke-miterlimit="10" stroke-width="8"/><path d="    M292.525,345.184c0,20.146-16.344,36.488-36.515,36.488c-20.17,0-36.536-16.343-36.536-36.488    c0-20.16,16.366-36.584,36.536-36.584C276.182,308.6,292.525,325.023,292.525,345.184z" fill="none" stroke="#000000" stroke-linecap="round" stroke-linejoin="round" stroke-miterlimit="10" stroke-width="8"/></g></svg>